<?xml version="1.0" encoding="UTF-8" standalone="no"?>
<!DOCTYPE svg PUBLIC "-//W3C//DTD SVG 1.1//EN" "http://www.w3.org/Graphics/SVG/1.1/DTD/svg11.dtd">
<svg version="1.1" xmlns="http://www.w3.org/2000/svg" xmlns:xlink="http://www.w3.org/1999/xlink" preserveAspectRatio="xMidYMid meet" viewBox="0 0 640 640" width="640" height="640"><defs><path d="M538.22 270.2C538.22 395.88 436.18 497.92 310.49 497.92C184.81 497.92 82.77 395.88 82.77 270.2C82.77 144.52 184.81 42.48 310.49 42.48C436.18 42.48 538.22 144.52 538.22 270.2Z" id="a1wzkDDODA"></path><linearGradient id="gradienta2BqNUvBHX" gradientUnits="userSpaceOnUse" x1="310.49" y1="111.2" x2="310.49" y2="497.92"><stop style="stop-color: #d8dff5;stop-opacity: 1" offset="0%"></stop><stop style="stop-color: #e7c2ae;stop-opacity: 1" offset="100%"></stop></linearGradient><path d="M335.82 125.93L339.59 126.26L343.41 126.72L347.27 127.29L351.17 127.98L355.1 128.78L359.05 129.69L363.02 130.71L366.99 131.83L370.96 133.05L374.92 134.38L378.86 135.8L382.78 137.32L386.67 138.93L390.51 140.63L394.31 142.41L398.06 144.28L401.74 146.23L405.35 148.26L408.88 150.37L412.32 152.55L415.67 154.8L418.92 157.12L422.1 159.63L425.25 162.44L428.35 165.55L431.41 168.97L434.4 172.68L437.31 176.7L440.15 181L442.89 185.6L445.53 190.48L448.06 195.66L450.47 201.11L452.75 206.86L454.89 212.88L456.88 219.17L458.7 225.75L460.36 232.59L461.84 239.71L463.13 247.1L464.23 254.75L465.11 262.67L465.78 270.85L466.22 279.29L466.42 287.98L466.37 296.93L466.07 306.13L465.5 315.58L464.65 325.28L463.52 335.23L462.1 345.42L460.36 355.85L458.32 366.51L455.94 377.42L453.24 388.56L450.19 399.93L446.78 411.53L443.02 423.35L438.88 435.4L434.35 447.68L429.44 460.17L427.1 465.75L422.85 468.28L415.11 472.49L407.19 476.4L399.1 480.02L390.85 483.32L382.44 486.31L373.88 488.97L365.19 491.3L356.36 493.29L347.41 494.94L338.34 496.23L329.16 497.17L319.87 497.73L310.49 497.92L301.11 497.73L291.83 497.17L282.65 496.23L273.58 494.94L264.62 493.29L255.8 491.3L247.1 488.97L238.55 486.31L230.14 483.32L221.89 480.02L213.8 476.4L205.88 472.49L198.13 468.28L190.58 463.78L183.21 459.01L176.04 453.96L169.08 448.65L162.33 443.08L155.8 437.26L149.5 431.19L146.43 428.01L152.69 426.13L160.08 423.77L167.32 421.32L174.39 418.78L181.31 416.15L188.06 413.44L194.66 410.63L201.09 407.74L207.37 404.75L213.49 401.68L219.44 398.52L225.24 395.27L230.87 391.93L236.35 388.5L241.67 384.98L246.83 381.37L251.82 377.67L256.66 373.88L261.34 370.01L265.86 366.04L270.22 361.99L274.41 357.84L278.45 353.61L282.33 349.29L286.05 344.88L289.61 340.38L293.01 335.79L296.25 331.11L299.33 326.34L302.25 321.48L303.81 318.69L301.61 318.15L297.77 317.04L294.01 315.79L290.33 314.39L286.74 312.86L283.23 311.19L279.8 309.4L276.47 307.48L273.23 305.44L270.08 303.28L267.03 301L264.08 298.62L261.23 296.12L258.49 293.53L255.85 290.84L253.32 288.05L250.91 285.16L248.6 282.2L246.41 279.14L244.35 276.01L242.4 272.8L240.57 269.52L238.87 266.16L237.3 262.75L235.86 259.27L234.55 255.73L233.38 252.14L232.35 248.5L231.45 244.82L230.7 241.09L230.09 237.32L229.63 233.51L229.32 229.68L229.16 225.82L229.16 221.93L229.31 218.03L229.62 214.1L230.09 210.17L230.73 206.22L231.53 202.28L232.49 198.36L233.6 194.53L234.86 190.77L236.25 187.09L237.79 183.49L239.45 179.98L241.25 176.56L243.17 173.22L245.21 169.98L247.37 166.84L249.64 163.79L252.03 160.84L254.52 157.99L257.12 155.24L259.81 152.61L262.6 150.08L265.48 147.66L268.45 145.36L271.5 143.17L274.64 141.1L277.85 139.15L281.13 137.33L284.48 135.63L287.9 134.06L291.38 132.62L294.91 131.31L298.5 130.14L302.14 129.1L305.83 128.21L309.56 127.45L313.33 126.85L313.66 126.81L314.76 126.6L318.05 126.16L321.44 125.85L324.92 125.68L328.48 125.63L332.12 125.72L335.82 125.93Z" id="a3zALpxgag"></path><path d="M338.94 111.57L343.08 111.9L347.24 112.33L351.4 112.85L355.55 113.47L359.7 114.19L363.82 115.01L367.92 115.91L371.98 116.92L376 118.02L379.97 119.21L383.87 120.49L387.71 121.86L391.48 123.32L395.15 124.87L398.81 126.62L402.49 128.68L406.21 131.04L409.93 133.7L413.66 136.67L417.39 139.94L421.1 143.52L424.78 147.41L428.43 151.6L432.03 156.09L435.58 160.89L439.06 165.99L442.46 171.4L445.78 177.11L449.01 183.12L452.12 189.44L455.13 196.06L458.01 202.98L460.75 210.21L463.35 217.74L465.79 225.57L468.06 233.71L470.17 242.15L472.08 250.89L473.8 259.94L475.32 269.28L476.62 278.93L477.69 288.88L478.53 299.14L479.13 309.69L479.47 320.55L479.54 331.71L479.34 343.17L478.86 354.93L478.08 366.99L476.99 379.36L475.59 392.02L473.87 404.99L471.81 418.26L469.4 431.82L469.04 433.55L465.19 437.26L458.66 443.08L451.91 448.65L444.95 453.96L437.78 459.01L430.41 463.78L422.85 468.28L415.11 472.49L407.19 476.4L399.1 480.02L390.85 483.32L382.44 486.31L373.88 488.97L365.19 491.3L356.36 493.29L347.41 494.94L338.34 496.23L329.16 497.17L319.87 497.73L310.49 497.92L301.11 497.73L291.83 497.17L282.65 496.23L273.58 494.94L264.62 493.29L255.8 491.3L247.1 488.97L238.55 486.31L230.14 483.32L221.89 480.02L213.8 476.4L205.88 472.49L198.13 468.28L190.58 463.78L183.21 459.01L177.4 454.92L180.4 453.36L187.45 449.54L194.33 445.67L201.02 441.75L207.54 437.77L213.89 433.75L220.06 429.67L226.06 425.54L231.88 421.36L237.52 417.12L242.99 412.84L248.29 408.5L253.41 404.11L258.35 399.67L263.12 395.17L267.71 390.63L272.13 386.03L276.37 381.38L280.43 376.67L284.32 371.92L288.04 367.11L291.58 362.25L294.94 357.34L298.13 352.38L301.15 347.36L303.98 342.3L306.65 337.18L309.13 332.01L311.45 326.78L313.58 321.51L315.54 316.18L317.33 310.8L318.24 307.74L315.97 307.69L311.98 307.45L308.04 307.05L304.15 306.5L300.3 305.79L296.51 304.93L292.78 303.93L289.1 302.79L285.49 301.5L281.95 300.09L278.48 298.54L275.08 296.85L271.75 295.05L268.5 293.12L265.34 291.07L262.26 288.9L259.27 286.62L256.37 284.22L253.57 281.72L250.87 279.12L248.26 276.42L245.76 273.61L243.37 270.71L241.09 267.72L238.92 264.65L236.87 261.48L234.94 258.24L233.13 254.91L231.45 251.51L229.9 248.04L228.48 244.49L227.2 240.88L226.06 237.21L225.05 233.47L224.2 229.68L223.49 225.84L222.94 221.94L222.53 218L222.29 214.01L222.21 209.99L222.29 205.96L222.53 201.97L222.94 198.03L223.49 194.13L224.2 190.29L225.05 186.5L226.06 182.76L227.2 179.09L228.48 175.48L229.9 171.94L231.45 168.46L233.13 165.06L234.94 161.74L236.87 158.49L238.92 155.33L241.09 152.25L243.37 149.26L245.76 146.36L248.26 143.56L250.87 140.85L253.57 138.25L256.37 135.75L259.27 133.36L262.26 131.08L265.34 128.91L268.5 126.86L271.75 124.93L275.08 123.12L278.48 121.44L281.95 119.89L285.49 118.47L285.81 118.36L286.84 117.92L289.95 116.76L293.19 115.72L296.55 114.79L300.01 113.97L303.58 113.25L307.24 112.65L310.99 112.15L314.82 111.75L318.71 111.46L322.67 111.28L326.68 111.2L330.73 111.22L334.82 111.35L334.82 111.35L338.94 111.57Z" id="gnuTDwJIf"></path><radialGradient id="gradientdhN6O1mb8" gradientUnits="userSpaceOnUse" cx="368.48" cy="540.37" r="364.22"><stop style="stop-color: #7c88b0;stop-opacity: 1" offset="0%"></stop><stop style="stop-color: #c2d7ea;stop-opacity: 1" offset="0%"></stop><stop style="stop-color: #0f1f4b;stop-opacity: 1" offset="100%"></stop></radialGradient><path d="M188.71 258.88C124.72 280.01 122.91 296.31 183.28 307.78C273.82 324.98 299.94 266.58 311.04 235.34C322.13 204.1 288.31 246.21 278.35 215.42C271.71 194.9 263.86 194.9 254.81 215.42L188.71 258.88Z" id="c2LlDgpnNe"></path><linearGradient id="gradiente1hVIaEXPx" gradientUnits="userSpaceOnUse" x1="228.12" y1="216.41" x2="270.3" y2="291.77"><stop style="stop-color: #ffc9e8;stop-opacity: 1" offset="0%"></stop><stop style="stop-color: #dd3e94;stop-opacity: 1" offset="100%"></stop></linearGradient><path d="M345.47 169.67L346.7 169.99L347.89 170.4L349.04 170.88L350.15 171.45L351.21 172.09L352.22 172.8L353.18 173.57L354.08 174.41L354.93 175.32L355.7 176.27L356.41 177.29L357.05 178.35L357.62 179.46L358.1 180.61L358.51 181.8L358.83 183.03L359.07 184.29L359.21 185.58L359.26 186.9L359.25 187.01L358.25 187.47L356.04 188.57L353.88 189.71L351.77 190.88L349.71 192.08L347.71 193.32L345.77 194.58L343.88 195.88L342.06 197.2L340.29 198.55L338.59 199.92L336.95 201.31L335.38 202.73L334.87 203.21L334.16 202.91L333.05 202.35L331.99 201.71L330.98 201L330.02 200.22L329.12 199.38L328.28 198.48L327.5 197.52L326.79 196.51L326.15 195.45L325.59 194.34L325.1 193.19L324.69 191.99L324.37 190.77L324.14 189.51L323.99 188.21L323.95 186.9L323.99 185.58L324.14 184.29L324.37 183.03L324.69 181.8L325.1 180.61L325.59 179.46L326.15 178.35L326.79 177.29L327.5 176.27L328.28 175.32L329.12 174.41L330.02 173.57L330.98 172.8L331.99 172.09L333.05 171.45L334.16 170.88L335.31 170.4L336.5 169.99L337.73 169.67L338.99 169.43L340.28 169.29L341.6 169.24L342.92 169.29L344.21 169.43L344.21 169.43L345.47 169.67Z" id="ekw9aZZGb"></path><path d="M438.31 194.26C445.05 212.28 424.3 236.72 392 248.8C359.7 260.88 328.01 256.06 321.27 238.04C314.53 220.02 335.28 195.58 367.58 183.5C399.87 171.42 431.56 176.24 438.31 194.26Z" id="axbLT8bmh"></path><linearGradient id="gradientbfjdeRkSK" gradientUnits="userSpaceOnUse" x1="344.94" y1="160.77" x2="363.12" y2="216.15"><stop style="stop-color: #557aa2;stop-opacity: 1" offset="0%"></stop><stop style="stop-color: #aeb9de;stop-opacity: 0" offset="100%"></stop></linearGradient><path d="M345.57 173.36L346.81 173.78L347.99 174.31L349.11 174.95L350.17 175.68L351.15 176.5L352.05 177.4L352.87 178.38L353.6 179.44L354.24 180.56L354.77 181.74L355.19 182.97L355.5 184.26L355.69 185.58L355.76 186.95L355.75 187.03L354.95 187.41L353.18 188.29L351.44 189.2L349.75 190.14L348.1 191.1L346.5 192.09L344.94 193.11L343.43 194.15L341.97 195.21L340.55 196.29L339.19 197.39L337.88 198.5L336.62 199.64L336.21 200.03L335.21 199.58L334.09 198.95L333.04 198.22L332.06 197.4L331.15 196.49L330.33 195.51L329.6 194.46L328.97 193.33L328.44 192.15L328.01 190.92L327.7 189.63L327.51 188.31L327.45 186.95L327.51 185.58L327.7 184.26L328.01 182.97L328.44 181.74L328.97 180.56L329.6 179.44L330.33 178.38L331.15 177.4L332.06 176.5L333.04 175.68L334.09 174.95L335.21 174.31L336.39 173.78L337.63 173.36L338.91 173.05L340.24 172.85L341.6 172.79L342.96 172.85L344.29 173.05L344.29 173.05L345.57 173.36Z" id="bdcxFTLqD"></path><path d="M352.38 179.04C351.34 180.98 348.66 181.58 346.4 180.37C344.13 179.16 343.14 176.6 344.18 174.65C345.22 172.7 347.91 172.11 350.17 173.32C352.43 174.53 353.43 177.09 352.38 179.04Z" id="aszWeGLms"></path><path d="M339.96 173.26C341.83 175.44 340.94 179.28 337.97 181.82C335.01 184.36 331.08 184.66 329.21 182.48C327.34 180.3 328.23 176.46 331.2 173.92C334.17 171.38 338.09 171.08 339.96 173.26Z" id="bgTwibJ64"></path><path d="" id="a7aQ3QQ1BR"></path><path d="M155.1 273.19L154.41 273.76L153.75 274.33L153.12 274.88L152.52 275.42L151.95 275.94L151.41 276.46L150.91 276.96L150.44 277.46L150 277.94L149.59 278.41L149.21 278.86L148.86 279.31L148.55 279.74L148.27 280.17L148.02 280.58L147.8 280.98L147.61 281.36L147.45 281.74L147.33 282.1L147.24 282.46L147.18 282.8L147.15 283.13L147.15 283.44L147.18 283.75L147.25 284.04L147.35 284.33L147.48 284.6L147.64 284.86L147.83 285.1L148.05 285.34L148.31 285.56L148.6 285.78L148.92 285.98L149.27 286.17L149.47 286.26L149.67 286.35L149.89 286.44L150.11 286.52L150.33 286.6L150.56 286.67L150.8 286.74L151.04 286.8L151.29 286.86L151.54 286.91L151.8 286.96L152.07 287L152.34 287.04L152.62 287.07L152.9 287.1L153.19 287.12L153.49 287.14L153.79 287.15L154.1 287.16L154.41 287.16L154.73 287.16L155.06 287.15L155.39 287.14L155.73 287.12L156.07 287.1L156.42 287.07L156.78 287.04L157.14 287L157.51 286.96L157.88 286.92L158.26 286.87L158.65 286.81L159.04 286.75L159.44 286.68L159.84 286.61L160.25 286.54L160.67 286.45L161.09 286.37L161.52 286.28L161.95 286.18L162.42 286.08L162.9 286L163.37 285.93L163.85 285.88L164.32 285.84L164.79 285.81L165.26 285.8L165.74 285.8L166.21 285.82L166.67 285.85L167.14 285.9L167.6 285.95L168.06 286.03L168.52 286.11L168.97 286.21L169.42 286.32L169.87 286.45L170.31 286.59L170.75 286.74L171.19 286.9L171.61 287.08L172.04 287.27L172.46 287.47L172.87 287.69L173.27 287.91L173.67 288.15L174.06 288.4L174.45 288.67L174.83 288.94L175.2 289.23L175.56 289.53L175.91 289.83L176.26 290.15L176.6 290.49L176.92 290.83L177.24 291.18L177.55 291.55L177.85 291.92L178.13 292.31L178.41 292.7L178.67 293.08L178.94 293.45L179.22 293.81L179.5 294.16L179.79 294.51L180.09 294.84L180.39 295.17L180.7 295.49L181.02 295.8L181.34 296.1L181.68 296.39L182.01 296.67L182.36 296.95L182.71 297.22L183.07 297.48L183.43 297.73L183.81 297.97L184.19 298.2L184.57 298.42L184.96 298.64L185.36 298.85L185.77 299.05L186.18 299.24L186.6 299.42L187.03 299.59L187.47 299.76L187.91 299.91L188.36 300.06L188.81 300.2L189.27 300.33L189.74 300.45L190.22 300.57L190.7 300.67L191.19 300.77L191.68 300.85L192.19 300.93L192.7 301.01L193.21 301.07L193.74 301.12L194.27 301.17L195.24 301.05L196.22 300.95L197.19 300.85L198.17 300.75L199.14 300.66L200.12 300.57L201.09 300.49L202.07 300.41L203.05 300.33L204.02 300.27L205 300.2L205.98 300.15L206.96 300.09L207.94 300.04L208.91 300L209.89 299.96L210.87 299.93L211.85 299.9L212.83 299.88L213.81 299.86L214.79 299.85L215.77 299.84L216.75 299.83L217.72 299.83L218.7 299.84L219.68 299.85L220.66 299.87L221.64 299.89L222.62 299.91L223.6 299.94L224.58 299.98L225.56 300.02L226.54 300.07L227.51 300.12L228.49 300.17L229.47 300.23L230.45 300.3L231.43 300.37L232.4 300.44L233.38 300.52L234.65 300.62L235.91 300.71L237.15 300.78L238.38 300.83L239.6 300.87L240.8 300.9L241.99 300.91L243.16 300.9L244.32 300.88L245.46 300.85L246.59 300.8L247.71 300.73L248.81 300.65L249.9 300.56L250.97 300.45L252.04 300.33L253.08 300.19L254.11 300.03L255.13 299.86L256.14 299.68L257.13 299.48L258.1 299.26L259.06 299.03L260.01 298.79L260.95 298.53L261.87 298.25L262.77 297.96L263.66 297.66L264.54 297.34L265.4 297.01L266.25 296.66L267.09 296.29L267.91 295.91L268.72 295.52L269.51 295.11L270.29 294.68L271.06 294.24L271.5 293.97L270.88 294.44L267.6 296.63L264.17 298.71L260.57 300.65L256.79 302.46L252.84 304.12L248.71 305.62L244.39 306.95L239.88 308.11L235.17 309.08L230.27 309.85L225.16 310.41L219.84 310.76L214.31 310.88L208.56 310.77L202.58 310.41L196.38 309.8L189.95 308.93L183.28 307.78L178.86 306.91L174.69 306.02L170.74 305.11L167.03 304.19L163.55 303.25L160.31 302.29L157.3 301.31L154.52 300.32L151.97 299.3L149.66 298.27L147.58 297.22L145.74 296.15L144.12 295.06L142.74 293.96L141.6 292.84L140.68 291.7L140 290.54L139.56 289.36L139.34 288.16L139.36 286.95L139.61 285.72L140.1 284.47L140.82 283.2L141.77 281.92L142.95 280.61L144.37 279.29L146.02 277.95L147.91 276.59L150.03 275.22L152.38 273.82L154.96 272.41L157.78 270.98L158.19 270.78L157.38 271.4L156.59 272.01L155.83 272.6L155.83 272.6L155.1 273.19Z" id="djCd3aJWb"></path><path d="M338.94 111.57L343.08 111.9L347.24 112.33L351.4 112.85L355.55 113.47L359.7 114.19L363.82 115.01L367.92 115.91L371.98 116.92L376 118.02L379.97 119.21L383.87 120.49L387.71 121.86L391.48 123.32L395.15 124.87L398.81 126.62L402.49 128.68L406.21 131.04L409.93 133.7L413.66 136.67L417.39 139.94L421.1 143.52L424.78 147.41L428.43 151.6L432.03 156.09L435.58 160.89L439.06 165.99L442.46 171.4L445.78 177.11L449.01 183.12L452.12 189.44L455.13 196.06L458.01 202.98L460.75 210.21L463.35 217.74L465.79 225.57L468.06 233.71L470.17 242.15L472.08 250.89L473.8 259.94L475.32 269.28L476.62 278.93L477.69 288.88L478.53 299.14L479.13 309.69L479.47 320.55L479.54 331.71L479.34 343.17L478.86 354.93L478.08 366.99L476.99 379.36L475.59 392.02L473.87 404.99L471.81 418.26L469.4 431.82L469.04 433.55L465.19 437.26L458.66 443.08L451.91 448.65L444.95 453.96L437.78 459.01L430.41 463.78L422.85 468.28L415.11 472.49L407.19 476.4L399.1 480.02L390.85 483.32L382.44 486.31L373.88 488.97L365.19 491.3L356.36 493.29L347.41 494.94L338.34 496.23L329.16 497.17L319.87 497.73L310.49 497.92L301.11 497.73L291.83 497.17L282.65 496.23L273.58 494.94L264.62 493.29L255.8 491.3L247.1 488.97L238.55 486.31L230.14 483.32L221.89 480.02L213.8 476.4L205.88 472.49L198.13 468.28L190.58 463.78L183.21 459.01L177.4 454.92L180.4 453.36L187.45 449.54L194.33 445.67L201.02 441.75L207.54 437.77L213.89 433.75L220.06 429.67L226.06 425.54L231.88 421.36L237.52 417.12L242.99 412.84L248.29 408.5L253.41 404.11L258.35 399.67L263.12 395.17L267.71 390.63L272.13 386.03L276.37 381.38L280.43 376.67L284.32 371.92L288.04 367.11L291.58 362.25L294.94 357.34L298.13 352.38L301.15 347.36L303.98 342.3L306.65 337.18L309.13 332.01L311.45 326.78L313.58 321.51L315.54 316.18L317.33 310.8L318.24 307.74L315.97 307.69L311.98 307.45L308.04 307.05L304.15 306.5L300.3 305.79L296.51 304.93L292.78 303.93L289.1 302.79L285.49 301.5L281.95 300.09L278.48 298.54L275.08 296.85L271.75 295.05L268.5 293.12L265.34 291.07L262.26 288.9L259.27 286.62L256.37 284.22L253.57 281.72L250.87 279.12L248.26 276.42L245.76 273.61L243.37 270.71L241.09 267.72L238.92 264.65L236.87 261.48L234.94 258.24L233.13 254.91L231.45 251.51L229.9 248.04L228.48 244.49L227.2 240.88L226.06 237.21L225.05 233.47L224.2 229.68L223.49 225.84L222.94 221.94L222.53 218L222.29 214.01L222.21 209.99L222.29 205.96L222.53 201.97L222.94 198.03L223.49 194.13L224.2 190.29L225.05 186.5L226.06 182.76L227.2 179.09L228.48 175.48L229.9 171.94L231.45 168.46L233.13 165.06L234.94 161.74L236.87 158.49L238.92 155.33L241.09 152.25L243.37 149.26L245.76 146.36L248.26 143.56L250.87 140.85L253.57 138.25L256.37 135.75L259.27 133.36L262.26 131.08L265.34 128.91L268.5 126.86L271.75 124.93L275.08 123.12L278.48 121.44L281.95 119.89L285.49 118.47L285.81 118.36L286.84 117.92L289.95 116.76L293.19 115.72L296.55 114.79L300.01 113.97L303.58 113.25L307.24 112.65L310.99 112.15L314.82 111.75L318.71 111.46L322.67 111.28L326.68 111.2L330.73 111.22L334.82 111.35L334.82 111.35L338.94 111.57Z" id="a176t4Rvb6"></path><linearGradient id="gradientb2yMvdP9k" gradientUnits="userSpaceOnUse" x1="368.48" y1="540.37" x2="399" y2="358.95"><stop style="stop-color: #bd6b12;stop-opacity: 1" offset="0%"></stop><stop style="stop-color: #d44e09;stop-opacity: 1" offset="0%"></stop><stop style="stop-color: #c86f1c;stop-opacity: 0" offset="100%"></stop></linearGradient><path d="M263.47 241.25C259.68 244.17 255.51 245.12 254.16 243.37C252.82 241.62 254.8 237.83 258.59 234.91C262.38 232 266.55 231.05 267.9 232.8C269.24 234.55 267.26 238.34 263.47 241.25Z" id="a2N7l5DMj"></path></defs><g><g><g><use xlink:href="#a1wzkDDODA" opacity="1" fill="url(#gradienta2BqNUvBHX)"></use></g><g><use xlink:href="#a3zALpxgag" opacity="1" fill="#272930" fill-opacity="0.91"></use></g><g><use xlink:href="#gnuTDwJIf" opacity="1" fill="url(#gradientdhN6O1mb8)"></use></g><g><use xlink:href="#c2LlDgpnNe" opacity="1" fill="url(#gradiente1hVIaEXPx)"></use></g><g><use xlink:href="#ekw9aZZGb" opacity="1" fill="#0f9ce9" fill-opacity="1"></use></g><g><use xlink:href="#axbLT8bmh" opacity="1" fill="url(#gradientbfjdeRkSK)"></use></g><g><use xlink:href="#bdcxFTLqD" opacity="1" fill="#1e2326" fill-opacity="1"></use></g><g><use xlink:href="#aszWeGLms" opacity="1" fill="#ffffff" fill-opacity="0.57"></use></g><g><use xlink:href="#bgTwibJ64" opacity="1" fill="#ffffff" fill-opacity="0.57"></use></g><g><g><use xlink:href="#a7aQ3QQ1BR" opacity="1" fill-opacity="0" stroke="#000000" stroke-width="1" stroke-opacity="1"></use></g></g><g><use xlink:href="#djCd3aJWb" opacity="1" fill="#0c171d" fill-opacity="1"></use></g><g><use xlink:href="#a176t4Rvb6" opacity="1" fill="url(#gradientb2yMvdP9k)"></use></g><g><use xlink:href="#a2N7l5DMj" opacity="1" fill="#000000" fill-opacity="0.52"></use></g></g></g></svg>